<?xml version="1.0" encoding="UTF-8" standalone="no"?>
<!DOCTYPE svg PUBLIC "-//W3C//DTD SVG 1.1//EN" "http://www.w3.org/Graphics/SVG/1.1/DTD/svg11.dtd">
<svg width="100%" height="100%" viewBox="0 0 4267 4267" version="1.1" xmlns="http://www.w3.org/2000/svg" xmlns:xlink="http://www.w3.org/1999/xlink" xml:space="preserve" xmlns:serif="http://www.serif.com/" style="fill-rule:evenodd;clip-rule:evenodd;stroke-linejoin:round;stroke-miterlimit:2;">
    <path d="M3855.66,421.657C3855.66,365.611 3833.39,311.86 3793.76,272.229C3754.13,232.598 3700.38,210.333 3644.33,210.333L622.336,210.333C566.289,210.333 512.538,232.598 472.907,272.229C433.276,311.86 411.012,365.611 411.012,421.657L411.012,2334.01C411.012,2790.8 592.47,3228.88 915.468,3551.88C1238.47,3874.88 1676.55,4056.33 2133.33,4056.33L2133.33,4056.33C2590.12,4056.33 3028.2,3874.88 3351.2,3551.88C3674.2,3228.88 3855.66,2790.8 3855.66,2334.01L3855.66,421.657ZM2200.01,3475.58C1502.71,3475.58 936.592,2909.47 936.592,2212.17C936.592,2127.31 867.699,2058.42 782.842,2058.42C697.985,2058.42 629.092,2127.31 629.092,2212.17C629.092,3079.18 1333,3783.08 2200.01,3783.08C2284.86,3783.08 2353.76,3714.19 2353.76,3629.33C2353.76,3544.48 2284.86,3475.58 2200.01,3475.58ZM3099.33,624.894C3099.33,618.822 3096.92,612.999 3092.63,608.705C3088.33,604.412 3082.51,602 3076.44,602C2874.01,602 1392.66,602 1190.23,602C1184.15,602 1178.33,604.412 1174.04,608.705C1169.75,612.999 1167.33,618.822 1167.33,624.894L1167.33,665C1167.33,921.199 1269.11,1166.9 1450.27,1348.07C1631.43,1529.23 1877.13,1631 2133.33,1631L2133.33,1631C2666.84,1631 3099.33,1198.51 3099.33,665C3099.33,648.72 3099.33,635.189 3099.33,624.894Z" style="fill:rgb(235,235,235);"/>
</svg>
